<?xml version="1.0" encoding="utf-8"?>
<!-- Generator: Adobe Illustrator 21.1.0, SVG Export Plug-In . SVG Version: 6.00 Build 0)  -->
<svg version="1.1" id="Icons" xmlns="http://www.w3.org/2000/svg" xmlns:xlink="http://www.w3.org/1999/xlink" x="0px" y="0px"
	 viewBox="0 0 48 48" style="enable-background:new 0 0 48 48;" xml:space="preserve">
<style type="text/css">
	.st0{fill:#FFFFFF;}
	.st1{fill:#F0F0F0;}
	.st2{fill:none;stroke:#45413C;stroke-linecap:round;stroke-linejoin:round;stroke-miterlimit:10;}
	.st3{fill:#FF6242;}
	.st4{fill:#FF866E;}
	.st5{fill:#FFE500;stroke:#45413C;stroke-linecap:round;stroke-linejoin:round;stroke-miterlimit:10;}
	.st6{opacity:0.15;fill:#45413C;}
	.st7{fill:#45413C;stroke:#45413C;stroke-linecap:round;stroke-linejoin:round;stroke-miterlimit:10;}
	.st8{fill:#FFAA54;}
	.st9{fill:#E0E0E0;}
	.st10{fill:#FFCEBF;stroke:#45413C;stroke-linecap:round;stroke-linejoin:round;stroke-miterlimit:10;}
	.st11{fill:#FFB59E;}
	.st12{fill:#724F3D;}
	.st13{fill:#A86C4D;}
	.st14{fill:#FFE500;}
	.st15{fill:#EBCB00;}
	.st16{fill:#FFA694;}
	.st17{fill:#FFFFFF;stroke:#45413C;stroke-linecap:round;stroke-linejoin:round;stroke-miterlimit:10;}
	.st18{fill:#DE926A;}
	.st19{fill:#FFCEBF;}
	.st20{fill:#656769;}
	.st21{fill:#525252;}
	.st22{fill:#656769;stroke:#45413C;stroke-linecap:round;stroke-linejoin:round;stroke-miterlimit:10;}
	.st23{fill:#45413C;}
	.st24{fill:#009FD9;stroke:#45413C;stroke-linecap:round;stroke-linejoin:round;stroke-miterlimit:10;}
	.st25{fill:#A86C4D;stroke:#45413C;stroke-linecap:round;stroke-linejoin:round;stroke-miterlimit:10;}
	.st26{fill:#614B44;stroke:#45413C;stroke-linecap:round;stroke-linejoin:round;stroke-miterlimit:10;}
	.st27{fill:#FF6242;stroke:#45413C;stroke-linecap:round;stroke-linejoin:round;stroke-miterlimit:10;}
	.st28{fill:#9CEB60;stroke:#45413C;stroke-linecap:round;stroke-linejoin:round;stroke-miterlimit:10;}
	.st29{fill:#9F5AE5;}
	.st30{fill:#BF8DF2;}
	.st31{fill:#FFDCD1;}
	.st32{fill:#FFF48C;}
	.st33{fill:#E5FEFF;}
	.st34{fill:#00DFEB;}
	.st35{fill:#A6FBFF;}
	.st36{fill:#FF87AF;}
	.st37{fill:#FF6196;}
	.st38{fill:#EBCB00;stroke:#45413C;stroke-linecap:round;stroke-linejoin:round;stroke-miterlimit:10;}
	.st39{fill:#00B8F0;}
	.st40{fill:#009FD9;}
	.st41{fill:#4ACFFF;}
	.st42{fill:#FFB59E;stroke:#45413C;stroke-linecap:round;stroke-linejoin:round;stroke-miterlimit:10;}
	.st43{fill:#FFB0CA;}
	.st44{fill:#FF87AF;stroke:#45413C;stroke-linecap:round;stroke-linejoin:round;stroke-miterlimit:10;}
	.st45{fill:#00B8F0;stroke:#45413C;stroke-linecap:round;stroke-linejoin:round;stroke-miterlimit:10;}
	.st46{fill:#FF866E;stroke:#45413C;stroke-linecap:round;stroke-linejoin:round;stroke-miterlimit:10;}
	.st47{fill:#DAEDF7;stroke:#45413C;stroke-linecap:round;stroke-linejoin:round;stroke-miterlimit:10;}
	.st48{fill:#DABFF5;}
	.st49{fill:#C0DCEB;}
	.st50{fill:#ADC4D9;}
	.st51{fill:#E04122;stroke:#45413C;stroke-linecap:round;stroke-linejoin:round;stroke-miterlimit:10;}
	.st52{fill:#BF8256;}
	.st53{fill:#DEA47A;}
	.st54{fill:#87898C;}
	.st55{fill:#BDBEC0;stroke:#45413C;stroke-linecap:round;stroke-linejoin:round;stroke-miterlimit:10;}
	.st56{fill:#8CA4B8;}
	.st57{fill:#FFC44D;}
	.st58{fill:#FFDB94;}
	.st59{fill:#FFC44D;stroke:#45413C;stroke-linecap:round;stroke-linejoin:round;stroke-miterlimit:10;}
	.st60{fill:#E04122;}
	.st61{fill:#724F3D;stroke:#45413C;stroke-linecap:round;stroke-linejoin:round;stroke-miterlimit:10;}
	.st62{fill:#915E3A;}
	.st63{fill:#FF8A14;}
	.st64{fill:none;stroke:#45413C;stroke-linecap:round;stroke-miterlimit:10;}
	.st65{fill:#00F5BC;}
	.st66{fill:#00DBA8;}
	.st67{fill:#627B8C;}
</style>
<g>
	<g>
		<ellipse class="st6" cx="24" cy="45.5" rx="16.5" ry="1.5"/>
	</g>
	<g>
		<g>
			<circle id="XMLID_6508_" class="st5" cx="14.8" cy="15.1" r="4.7"/>
			<path id="XMLID_6507_" class="st12" d="M14.8,9.1L14.8,9.1c-2.6,0-4.9,0.5-4.9,0.5l1.3,1.3c-0.6,0.8-1,1.8-1,2.9v1.5
				c1-0.6,1.7-1.5,1.9-2.6c0-0.2,0.1-0.3,0.2-0.4c0.6,0.4,1.5,0.6,2.5,0.6s1.9-0.2,2.5-0.6c0.1,0.1,0.2,0.2,0.2,0.4
				c0.2,1.1,0.9,2.1,1.9,2.6v-1.5C19.5,11.2,17.4,9.1,14.8,9.1z"/>
			<g id="XMLID_6505_">
				<path id="XMLID_6506_" class="st13" d="M14.8,9.1L14.8,9.1c-2.6,0-4.9,0.5-4.9,0.5l1.3,1.3c0,0.1-0.1,0.1-0.1,0.2
					c0.9-0.1,2.3-0.3,3.8-0.3h0c2.5,0,4.6,2,4.7,4.5c0,0,0,0,0,0v-1.5C19.5,11.2,17.4,9.1,14.8,9.1z"/>
			</g>
			<path id="XMLID_6504_" class="st2" d="M19.5,13.8c0-2.6-2.1-4.7-4.7-4.7c-2.6,0-4.9,0.5-4.9,0.5l1.3,1.3c-0.6,0.8-1,1.8-1,2.9
				v1.5c1-0.6,1.7-1.5,1.9-2.6c0-0.2,0.1-0.3,0.2-0.4c0.6,0.4,1.5,0.6,2.5,0.6s1.9-0.2,2.5-0.6c0.1,0.1,0.2,0.2,0.2,0.4
				c0.2,1.1,0.9,2.1,1.9,2.6V13.8z"/>
			<circle id="XMLID_6503_" class="st23" cx="13" cy="15.8" r="0.7"/>
			<circle id="XMLID_6502_" class="st23" cx="16.6" cy="15.8" r="0.7"/>
		</g>
		<g>
			<path id="XMLID_6501_" class="st12" d="M10.7,32.8L10.7,32.8V45h3.1v-8.8c0-0.6,0.4-1,1-1h0c0.6,0,1,0.4,1,1V45h3.1V32.8H10.7z"
				/>
			<polygon id="XMLID_6500_" class="st62" points="10.7,32.8 10.7,32.8 10.7,35.1 10.7,35.1 18.9,35.1 18.9,32.8 			"/>
			<path id="XMLID_6499_" class="st2" d="M10.7,32.8L10.7,32.8V45h3.1v-8.8c0-0.6,0.4-1,1-1h0c0.6,0,1,0.4,1,1V45h3.1V32.8H10.7z"/>
			<path id="XMLID_6498_" class="st22" d="M14.4,44.4c0.1,0.3-0.2,0.6-0.5,0.6h-3.3c-0.3,0-0.6-0.3-0.5-0.6l0-0.2
				c0.2-1,1.1-1.7,2.1-1.7h0c1,0,1.9,0.7,2.1,1.7L14.4,44.4z"/>
			<path id="XMLID_6497_" class="st22" d="M19,45h-3.3c-0.3,0-0.6-0.3-0.5-0.6l0-0.2c0.2-1,1.1-1.7,2.1-1.7h0c1,0,1.9,0.7,2.1,1.7
				l0,0.2C19.6,44.7,19.3,45,19,45z"/>
			<path class="st5" d="M24.2,30.7c-1-0.8-1.8-1.8-2.3-2.9h-2.8c0.4,2,1.5,3.8,3.4,5.3c0.7,0.5,1.6,0.4,2.1-0.3
				C25,32.1,24.9,31.2,24.2,30.7z"/>
			<path id="XMLID_6496_" class="st5" d="M8.1,27.8l0,5.5c0,0.8,0.6,1.4,1.3,1.4h0c0.7,0,1.3-0.6,1.3-1.4l0-5.5H8.1z"/>
			<g id="XMLID_6494_">
				<path id="XMLID_6495_" class="st39" d="M21.3,25c0-2.2-2-3.4-4.1-3.4h-4.9c-2.2,0-4.1,1.2-4.1,3.4v2.8h2.7v5h8.1v-5h3
					C21.5,26.8,21.3,26,21.3,25z"/>
			</g>
			<path class="st41" d="M12.2,23.6h5.4c1.5,0,2.9,0.6,3.7,1.7c0-0.1,0-0.2,0-0.3c0-2.2-2-3.4-4.1-3.4h-4.9c-2.2,0-4.1,1.2-4.1,3.4
				v2C8.1,24.8,10.1,23.6,12.2,23.6z"/>
			<g id="XMLID_6492_">
				<path id="XMLID_6493_" class="st2" d="M21.3,25c0-2.2-2-3.4-4.1-3.4h-4.9c-2.2,0-4.1,1.2-4.1,3.4v2.8h2.7v5h8.1v-5h3
					C21.5,26.8,21.3,26,21.3,25z"/>
			</g>
			<line id="XMLID_6491_" class="st2" x1="10.7" y1="27.8" x2="10.7" y2="25.6"/>
			<line id="XMLID_6490_" class="st2" x1="18.9" y1="27.8" x2="18.9" y2="25.6"/>
			<path id="XMLID_6489_" class="st5" d="M14.8,23.6c1.1,0,2-0.9,2-2h-4.1C12.8,22.7,13.7,23.6,14.8,23.6z"/>
		</g>
	</g>
	<g>
		<g>
			<circle id="XMLID_6488_" class="st5" cx="33.2" cy="15.1" r="4.7"/>
			<path id="XMLID_6487_" class="st12" d="M33.2,9.1L33.2,9.1c-2.6,0-4.9,0.5-4.9,0.5l1.3,1.3c-0.6,0.8-1,1.8-1,2.9v1.5
				c1-0.6,1.7-1.5,1.9-2.6c0-0.2,0.1-0.3,0.2-0.4c0.6,0.4,1.5,0.6,2.5,0.6c1,0,1.9-0.2,2.5-0.6c0.1,0.1,0.2,0.2,0.2,0.4
				c0.2,1.1,0.9,2.1,1.9,2.6v-1.5C37.9,11.2,35.8,9.1,33.2,9.1z"/>
			<g id="XMLID_6485_">
				<path id="XMLID_6486_" class="st13" d="M33.2,9.1L33.2,9.1c-2.6,0-4.9,0.5-4.9,0.5l1.3,1.3c0,0.1-0.1,0.1-0.1,0.2
					c0.9-0.1,2.3-0.3,3.8-0.3h0c2.5,0,4.6,2,4.7,4.5c0,0,0,0,0,0v-1.5C37.9,11.2,35.8,9.1,33.2,9.1z"/>
			</g>
			<path id="XMLID_6484_" class="st2" d="M37.9,13.8c0-2.6-2.1-4.7-4.7-4.7c-2.6,0-4.9,0.5-4.9,0.5l1.3,1.3c-0.6,0.8-1,1.8-1,2.9
				v1.5c1-0.6,1.7-1.5,1.9-2.6c0-0.2,0.1-0.3,0.2-0.4c0.6,0.4,1.5,0.6,2.5,0.6c1,0,1.9-0.2,2.5-0.6c0.1,0.1,0.2,0.2,0.2,0.4
				c0.2,1.1,0.9,2.1,1.9,2.6V13.8z"/>
			<circle id="XMLID_6483_" class="st23" cx="31.4" cy="15.8" r="0.7"/>
			<circle id="XMLID_6482_" class="st23" cx="35" cy="15.8" r="0.7"/>
		</g>
		<g>
			<path id="XMLID_6481_" class="st39" d="M37.3,32.8L37.3,32.8V45h-3.1v-8.8c0-0.6-0.4-1-1-1h0c-0.6,0-1,0.4-1,1V45h-3.1V32.8H37.3
				z"/>
			<polygon id="XMLID_6480_" class="st40" points="37.3,32.8 37.3,32.8 37.3,35.1 37.3,35.1 29.1,35.1 29.1,32.8 			"/>
			<path id="XMLID_6479_" class="st2" d="M37.3,32.8L37.3,32.8V45h-3.1v-8.8c0-0.6-0.4-1-1-1h0c-0.6,0-1,0.4-1,1V45h-3.1V32.8H37.3z
				"/>
			<path id="XMLID_6478_" class="st22" d="M33.6,44.4c-0.1,0.3,0.2,0.6,0.5,0.6h3.3c0.3,0,0.6-0.3,0.5-0.6l0-0.2
				c-0.2-1-1.1-1.7-2.1-1.7h0c-1,0-1.9,0.7-2.1,1.7L33.6,44.4z"/>
			<path id="XMLID_6477_" class="st22" d="M29,45h3.3c0.3,0,0.6-0.3,0.5-0.6l0-0.2c-0.2-1-1.1-1.7-2.1-1.7h0c-1,0-1.9,0.7-2.1,1.7
				l0,0.2C28.4,44.7,28.7,45,29,45z"/>
			<path class="st5" d="M23.8,30.7c1-0.8,1.8-1.8,2.3-2.9h2.8c-0.4,2-1.5,3.8-3.4,5.3c-0.7,0.5-1.6,0.4-2.1-0.3
				C23,32.1,23.1,31.2,23.8,30.7z"/>
			<path id="XMLID_6476_" class="st5" d="M39.9,27.8l0,5.5c0,0.8-0.6,1.4-1.3,1.4h0c-0.7,0-1.3-0.6-1.3-1.4l0-5.5H39.9z"/>
			<g id="XMLID_6474_">
				<path id="XMLID_6475_" class="st63" d="M26.7,25c0-2.2,2-3.4,4.1-3.4h4.9c2.2,0,4.1,1.2,4.1,3.4v2.8h-2.7v5h-8.1v-5h-3
					C26.5,26.8,26.7,26,26.7,25z"/>
			</g>
			<path class="st8" d="M35.8,23.6h-5.4c-1.5,0-2.9,0.6-3.7,1.7c0-0.1,0-0.2,0-0.3c0-2.2,2-3.4,4.1-3.4h4.9c2.2,0,4.1,1.2,4.1,3.4v2
				C39.9,24.8,37.9,23.6,35.8,23.6z"/>
			<g id="XMLID_6472_">
				<path id="XMLID_6473_" class="st2" d="M26.7,25c0-2.2,2-3.4,4.1-3.4h4.9c2.2,0,4.1,1.2,4.1,3.4v2.8h-2.7v5h-8.1v-5h-3
					C26.5,26.8,26.7,26,26.7,25z"/>
			</g>
			<line id="XMLID_6471_" class="st2" x1="37.3" y1="27.8" x2="37.3" y2="25.6"/>
			<line id="XMLID_6470_" class="st2" x1="29.1" y1="27.8" x2="29.1" y2="25.6"/>
			<path id="XMLID_6469_" class="st5" d="M33.2,23.6c-1.1,0-2-0.9-2-2h4.1C35.2,22.7,34.3,23.6,33.2,23.6z"/>
		</g>
	</g>
</g>
</svg>
